<svg id="al93k4as9h1z" version="1.1" xmlns="http://www.w3.org/2000/svg" xmlns:xlink="http://www.w3.org/1999/xlink" width="246.29999999999998" height="56.28" viewBox="0 0 246.29999999999998 56.28" style="" ><svg y="0" x="0" ><svg stroke-opacity="1" stroke="#66c4ea" stroke-width="0" fill="#66c4ea" x="0" y="0" ><path d="M 28.14 28.14m -28.14, 0a 28.14,28.14 0 1,0 56.28,0a 28.14,28.14 0 1,0 -56.28,0" ></path></svg><svg width="41.28" height="41.28" fill="#fff" x="7.5" y="7.5" ><svg xmlns="http://www.w3.org/2000/svg" xmlns:xlink="http://www.w3.org/1999/xlink" version="1.1" x="0px" y="0px" viewBox="0 0 100 100" enable-background="new 0 0 100 100" xml:space="preserve"><path d="M49.952,5C25.18,5,5.002,25.178,5.002,49.95c0,21.876,15.583,39.956,36.16,44.051c0.4-0.899,0.899-1.998,1.099-3.097  c-0.2-1.099-0.3-2.198-0.599-3.097c-0.999-3.196-2.198-6.393-3.396-9.589c-0.599-1.798-2.198-1.798-3.896-1.598  c-2.597,0.2-5.394,0.599-7.991,0.3c-3.996-0.4-4.895-2.098-4.795-6.093c0.1-1.099-0.2-2.697-0.899-3.496  c-1.398-1.398-0.899-2.397,0-3.596c-0.2,0-0.499-0.1-0.699-0.1c-0.1-0.999-0.599-2.098-0.4-2.997c0.4-2.198,0-2.997-2.198-3.796  c-0.699-0.2-1.299-0.4-1.998-0.799c-1.798-0.999-2.198-2.098-1.099-3.996c1.798-3.196,3.896-6.393,5.694-9.689  c0.599-0.999,0.4-2.597,0.4-3.896c0-1.398-0.699-2.997-0.4-4.395c0.799-2.797,1.698-5.594,2.897-8.191  c2.797-6.293,7.991-10.089,14.384-11.787c7.292-1.998,14.983-2.797,22.275-0.699c9.689,2.797,20.277,11.287,20.277,23.274  c0,3.996-0.899,8.291-2.597,11.887c-4.895,10.388-5.794,15.183-3.097,26.271c0,0,0,0.999,1.698,3.696c0,0,1.798,2.098,4.195,4.895  C89.107,75.222,95,63.235,95,49.95C94.902,25.178,74.725,5,49.952,5z M37.965,44.756l1.398-2.897c0.599,0,1.099,0,1.698,0  c0.599-0.1,1.099-0.2,1.598-0.3l1.898,2.597c1.199-0.499,2.497-0.999,3.496-1.898l-1.099-2.997c0.899-0.799,1.598-1.598,2.198-2.597  l3.196,0.599c0.599-1.199,0.899-2.497,1.199-3.796l-2.897-1.398c0-0.599,0-1.099,0-1.698c-0.1-0.599-0.2-1.099-0.3-1.598  l2.597-1.898c-0.499-1.199-0.999-2.497-1.898-3.496l-2.997,1.099c-0.799-0.899-1.598-1.598-2.597-2.198l0.599-3.196  c-1.199-0.599-2.497-0.899-3.796-1.199l-1.398,2.897c-0.599,0-1.099,0-1.698,0c-0.599,0.1-1.099,0.2-1.598,0.3l-1.898-2.597  c-1.199,0.499-2.497,0.999-3.496,1.898l1.099,2.997c-0.899,0.799-1.598,1.598-2.198,2.597l-3.196-0.599  c-0.599,1.199-0.899,2.497-1.199,3.796l2.897,1.398c0,0.599,0,1.099,0,1.698c0.1,0.599,0.2,1.099,0.3,1.598l-2.597,1.898  c0.499,1.199,0.999,2.497,1.898,3.496l2.997-1.099c0.799,0.899,1.598,1.598,2.597,2.198l-0.599,3.097  C35.268,44.157,36.667,44.556,37.965,44.756z M33.57,31.97c-0.3-3.496,2.297-6.693,5.893-6.992c3.496-0.3,6.693,2.297,6.992,5.893  c0.3,3.496-2.297,6.693-5.893,6.992C37.066,38.064,33.97,35.467,33.57,31.97z M47.954,40.761l3.296,3.596  c-0.1,0.3-0.2,0.499-0.3,0.799s-0.2,0.599-0.2,0.899l-4.695,1.099c-0.1,1.299,0.1,2.597,0.499,3.996l4.895,0.1  c0.2,0.499,0.499,0.999,0.799,1.398l-2.497,4.195c0.899,0.899,1.898,1.798,3.097,2.497l3.596-3.296c0.3,0.1,0.499,0.2,0.799,0.3  s0.599,0.2,0.899,0.2l1.199,4.695c1.299,0.1,2.597-0.1,3.996-0.499l0.1-4.895c0.499-0.2,0.999-0.499,1.398-0.799l4.195,2.497  c0.899-0.899,1.798-1.898,2.497-3.097l-3.496-3.596c0.1-0.3,0.2-0.499,0.3-0.799s0.2-0.599,0.2-0.899l4.695-1.199  c0.1-1.299-0.1-2.597-0.499-3.996l-4.895-0.1c-0.2-0.499-0.499-0.999-0.799-1.398l2.497-4.195c-0.899-0.899-1.898-1.798-3.097-2.497  l-3.596,3.296c-0.3-0.1-0.499-0.2-0.799-0.3s-0.599-0.2-0.899-0.2l-1.199-4.695c-1.299-0.1-2.597,0.1-3.996,0.499v5.094  c-0.499,0.2-0.999,0.499-1.398,0.799l-4.195-2.497C49.453,38.563,48.653,39.662,47.954,40.761z M54.547,46.055  c0.899-2.797,3.796-4.395,6.493-3.596c2.797,0.899,4.395,3.796,3.596,6.493c-0.899,2.797-3.796,4.395-6.493,3.596  C55.446,51.848,53.848,48.852,54.547,46.055z M54.547,23.879c-0.2,0.799-0.3,1.598-0.3,2.497l2.897,0.799c0,0.2,0.1,0.4,0.1,0.499  c0.1,0.2,0.1,0.4,0.2,0.499l-2.098,2.297c0.499,0.799,0.899,1.398,1.598,1.998l2.597-1.598c0.3,0.2,0.599,0.4,0.899,0.499l0.1,2.997  c0.799,0.2,1.598,0.3,2.497,0.3l0.799-2.897c0.2,0,0.4-0.1,0.499-0.1c0.2-0.1,0.4-0.1,0.499-0.2l2.297,2.098  c0.799-0.499,1.398-0.899,1.998-1.598l-1.598-2.597c0.2-0.3,0.4-0.599,0.499-0.899l2.997-0.1c0.2-0.799,0.3-1.598,0.3-2.497  l-2.897-0.699c0-0.2-0.1-0.4-0.1-0.499c-0.1-0.2-0.1-0.4-0.2-0.499l2.098-2.297c-0.499-0.799-0.899-1.398-1.598-1.998l-2.597,1.598  c-0.3-0.2-0.599-0.4-0.899-0.499l-0.1-2.997c-0.799-0.2-1.598-0.3-2.497-0.3l-0.799,2.897c-0.2,0-0.4,0.1-0.499,0.1  c-0.2,0.1-0.4,0.1-0.499,0.2l-2.198-2.098c-0.799,0.499-1.398,0.899-1.998,1.598l1.598,2.597c-0.2,0.3-0.4,0.599-0.499,0.899  L54.547,23.879z M61.839,22.781c1.798-0.499,3.596,0.499,4.095,2.297s-0.499,3.596-2.297,4.095  c-1.798,0.499-3.596-0.499-4.095-2.297C59.142,25.178,60.141,23.28,61.839,22.781z"></path></svg></svg></svg><svg x="70.35" y="18.09" fill="#000" ><path d="M11.300 1.050L14.400 1.050L17.100 11.050L17.100 11.050Q17.750 13.675 17.850 14.475L17.850 14.475L17.875 14.475L17.875 14.475Q18.025 13.400 18.675 11.050L18.675 11.050L21.375 1.050L24.900 1.050L19.750 19.050L16.425 19.050L13.675 9.050L13.675 9.050Q13.025 6.750 12.850 5.525L12.850 5.525L12.825 5.525L12.825 5.525Q12.625 6.925 12.025 9.050L12.025 9.050L9.275 19.050L5.950 19.050L0.800 1.050L4.325 1.050L7.025 11.050L7.025 11.050Q7.675 13.400 7.800 14.475L7.800 14.475L7.825 14.475L7.825 14.475Q7.925 13.725 8.600 11.050L8.600 11.050L11.300 1.050ZM27.063 3.488L27.063 3.488L27.063 3.488Q29.475 0.800 33.525 0.800L33.525 0.800L33.525 0.800Q37.575 0.800 39.988 3.488L39.988 3.488L39.988 3.488Q42.400 6.175 42.400 10.050L42.400 10.050L42.400 10.050Q42.400 13.925 39.988 16.613L39.988 16.613L39.988 16.613Q37.575 19.300 33.525 19.300L33.525 19.300L33.525 19.300Q29.475 19.300 27.063 16.613L27.063 16.613L27.063 16.613Q24.650 13.925 24.650 10.050L24.650 10.050L24.650 10.050Q24.650 6.175 27.063 3.488M29.750 14.863L29.750 14.863L29.750 14.863Q31.250 16.675 33.525 16.675L33.525 16.675L33.525 16.675Q35.800 16.675 37.300 14.863L37.300 14.863L37.300 14.863Q38.800 13.050 38.800 10.050L38.800 10.050L38.800 10.050Q38.800 7.050 37.300 5.238L37.300 5.238L37.300 5.238Q35.800 3.425 33.525 3.425L33.525 3.425L33.525 3.425Q31.250 3.425 29.750 5.238L29.750 5.238L29.750 5.238Q28.250 7.050 28.250 10.050L28.250 10.050L28.250 10.050Q28.250 13.050 29.750 14.863ZM49.150 3.425L46.900 3.550L46.900 9.050L46.900 9.050Q48.200 9.100 49.150 9.100L49.150 9.100L49.150 9.100Q50.925 9.100 51.738 8.363L51.738 8.363L51.738 8.363Q52.550 7.625 52.550 6.050L52.550 6.050L52.550 6.050Q52.550 4.925 51.663 4.175L51.663 4.175L51.663 4.175Q50.775 3.425 49.150 3.425L49.150 3.425M46.900 19.050L43.400 19.050L43.400 1.050L43.400 1.050Q47.050 0.800 49.150 0.800L49.150 0.800L49.150 0.800Q52.450 0.800 54.300 2.225L54.300 2.225L54.300 2.225Q56.150 3.650 56.150 6.050L56.150 6.050L56.150 6.050Q56.150 7.775 55.213 8.875L55.213 8.875L55.213 8.875Q54.275 9.975 53.025 10.250L53.025 10.250L53.025 10.250Q54.025 10.525 54.600 11.275L54.600 11.275L54.600 11.275Q55.175 12.025 55.525 13.925L55.525 13.925L55.525 13.925Q55.825 15.600 56.188 16.875L56.188 16.875L56.188 16.875Q56.550 18.150 56.750 18.600L56.750 18.600L56.950 19.050L53.300 19.050L53.300 19.050Q52.775 18.400 52.050 13.925L52.050 13.925L52.050 13.925Q51.850 12.700 51.188 12.213L51.188 12.213L51.188 12.213Q50.525 11.725 49.150 11.725L49.150 11.725L46.900 11.800L46.900 19.050ZM67.875 1.050L71.775 1.050L64.875 9.250L72.475 19.050L68.175 19.050L62.650 11.925L61.075 13.800L61.075 19.050L57.575 19.050L57.575 1.050L61.075 1.050L61.075 9.125L67.875 1.050ZM88.100 10.050L84.375 19.050L81.075 19.050L77.350 10.050L77.350 10.050Q76.575 8.150 76.375 7.425L76.375 7.425L76.350 7.425L76.350 7.425Q76.475 8.850 76.475 10.050L76.475 10.050L76.475 19.050L72.975 19.050L72.975 1.050L76.375 1.050L80.650 11.050L80.650 11.050Q82.175 14.600 82.700 16.350L82.700 16.350L82.725 16.350L82.725 16.350Q83.275 14.575 84.800 11.050L84.800 11.050L89.075 1.050L92.475 1.050L92.475 19.050L88.975 19.050L88.975 10.050L89.100 7.425L89.075 7.425L89.075 7.425Q88.800 8.325 88.100 10.050L88.100 10.050ZM109.575 19.050L105.975 19.050L104.425 14.550L98.125 14.550L96.575 19.050L92.975 19.050L99.475 1.050L103.075 1.050L109.575 19.050M99.950 9L98.950 11.950L103.600 11.950L102.600 9L102.600 9Q101.625 6.150 101.275 4.625L101.275 4.625L101.250 4.625L101.250 4.625Q100.925 6.150 99.950 9L99.950 9ZM110.113 14.262L110.113 14.262L110.113 14.262Q109.325 12.425 109.325 10.050L109.325 10.050L109.325 10.050Q109.325 7.675 110.113 5.838L110.113 5.838L110.113 5.838Q110.900 4 112.213 2.925L112.213 2.925L112.213 2.925Q113.525 1.850 115.113 1.325L115.113 1.325L115.113 1.325Q116.700 0.800 118.450 0.800L118.450 0.800L118.450 0.800Q119.550 0.800 120.588 0.950L120.588 0.950L120.588 0.950Q121.625 1.100 122.100 1.250L122.100 1.250L122.575 1.425L122.575 4.050L122.575 4.050Q120.700 3.425 118.450 3.425L118.450 3.425L118.450 3.425Q115.950 3.425 114.438 5.300L114.438 5.300L114.438 5.300Q112.925 7.175 112.925 10.050L112.925 10.050L112.925 10.050Q112.925 12.925 114.438 14.800L114.438 14.800L114.438 14.800Q115.950 16.675 118.450 16.675L118.450 16.675L118.450 16.675Q119.450 16.675 120.488 16.512L120.488 16.512L120.488 16.512Q121.525 16.350 122.050 16.200L122.050 16.200L122.575 16.050L122.575 18.675L122.575 18.675Q120.950 19.300 118.450 19.300L118.450 19.300L118.450 19.300Q116.700 19.300 115.113 18.775L115.113 18.775L115.113 18.775Q113.525 18.250 112.213 17.175L112.213 17.175L112.213 17.175Q110.900 16.100 110.113 14.262ZM135.825 8.375L135.825 1.050L139.325 1.050L139.325 19.050L135.825 19.050L135.825 11L127.325 11L127.325 19.050L123.825 19.050L123.825 1.050L127.325 1.050L127.325 8.375L135.825 8.375ZM144.575 1.050L144.575 19.050L141.075 19.050L141.075 1.050L144.575 1.050ZM162.150 19.050L158.600 19.050L151.975 9.050L151.975 9.050Q150.350 6.450 149.725 5.125L149.725 5.125L149.700 5.125L149.700 5.125Q149.825 6.725 149.825 9.050L149.825 9.050L149.825 19.050L146.325 19.050L146.325 1.050L149.875 1.050L156.500 11.050L156.500 11.050Q158.125 13.650 158.750 14.975L158.750 14.975L158.775 14.975L158.775 14.975Q158.650 13.375 158.650 11.050L158.650 11.050L158.650 1.050L162.150 1.050L162.150 19.050ZM167.400 11L167.400 16.425L175.150 16.425L175.150 19.050L163.900 19.050L163.900 1.050L174.900 1.050L174.900 3.675L167.400 3.675L167.400 8.375L174.275 8.375L174.275 11L167.400 11Z" ></path></svg></svg>