<?xml version="1.0" encoding="UTF-8" standalone="no"?>
<!DOCTYPE svg PUBLIC "-//W3C//DTD SVG 1.1//EN"
 "http://www.w3.org/Graphics/SVG/1.1/DTD/svg11.dtd">
<!-- Generated by graphviz version 2.40.1 (20161225.0304)
 -->
<!-- Title: G Pages: 1 -->
<svg width="758pt" height="298pt"
 viewBox="0.00 0.00 757.50 298.00" xmlns="http://www.w3.org/2000/svg" xmlns:xlink="http://www.w3.org/1999/xlink">
<g id="graph0" class="graph" transform="scale(1 1) rotate(0) translate(4 294)">
<title>G</title>
<polygon fill="#ffffff" stroke="transparent" points="-4,4 -4,-294 753.5,-294 753.5,4 -4,4"/>
<!-- WorkMachine -->
<g id="node1" class="node">
<title>WorkMachine</title>
<polygon fill="#ffa500" stroke="transparent" points="183,-266 183,-286 580,-286 580,-266 183,-266"/>
<polygon fill="none" stroke="#000000" points="183,-266 183,-286 580,-286 580,-266 183,-266"/>
<text text-anchor="start" x="318.23" y="-272.8" font-family="Times,serif" font-weight="bold" font-size="14.00" fill="#000000">Project: WorkMachine</text>
<polygon fill="none" stroke="#000000" points="183,-246 183,-266 580,-266 580,-246 183,-246"/>
<text text-anchor="start" x="185.8999" y="-251.8" font-family="Times,serif" font-size="14.00" fill="#000000">Make it really easy to create MTurk Tasks and get work done quickly.</text>
<polygon fill="none" stroke="#000000" points="183,-226 183,-246 580,-246 580,-226 183,-226"/>
<text text-anchor="start" x="372.9448" y="-231.8" font-family="Times,serif" font-size="14.00" fill="#000000">Q4</text>
<polygon fill="none" stroke="#000000" points="183,-206 183,-226 260,-226 260,-206 183,-206"/>
<text text-anchor="start" x="192.3447" y="-211.8" font-family="Times,serif" font-size="14.00" fill="#000000">Objective:</text>
<polygon fill="none" stroke="#000000" points="260,-206 260,-226 580,-226 580,-206 260,-206"/>
<text text-anchor="start" x="262.8145" y="-211.8" font-family="Times,serif" font-size="14.00" fill="#000000">Rapidly Create New HITs and Launch Them on MTurk.</text>
<polygon fill="none" stroke="#000000" points="183,-160 183,-206 260,-206 260,-160 183,-160"/>
<text text-anchor="start" x="185.5293" y="-178.8" font-family="Times,serif" font-size="14.00" fill="#000000">Key Results:</text>
<polygon fill="none" stroke="#000000" points="260,-160 260,-206 580,-206 580,-160 260,-160"/>
<polygon fill="none" stroke="#00ff00" points="263,-183 263,-203 577,-203 577,-183 263,-183"/>
<text text-anchor="start" x="266" y="-188.8" font-family="Times,serif" font-size="14.00" fill="#000000">Launch a New Campaign within 10 Minutes</text>
<polygon fill="none" stroke="#ff0000" points="263,-163 263,-183 577,-183 577,-163 263,-163"/>
<text text-anchor="start" x="266" y="-168.8" font-family="Times,serif" font-size="14.00" fill="#000000">Have 2 different backends: Airtable, PostgreSQL</text>
</g>
<!-- WorkMachineProduct -->
<g id="node2" class="node">
<title>WorkMachineProduct</title>
<polygon fill="#ffa500" stroke="transparent" points="8,-96 8,-116 370,-116 370,-96 8,-96"/>
<polygon fill="none" stroke="#000000" points="8,-96 8,-116 370,-116 370,-96 8,-96"/>
<text text-anchor="start" x="143.7017" y="-102.8" font-family="Times,serif" font-weight="bold" font-size="14.00" fill="#000000">Project: Product</text>
<polygon fill="none" stroke="#000000" points="8,-90 8,-96 370,-96 370,-90 8,-90"/>
<polygon fill="none" stroke="#000000" points="8,-70 8,-90 370,-90 370,-70 8,-70"/>
<text text-anchor="start" x="180.4448" y="-75.8" font-family="Times,serif" font-size="14.00" fill="#000000">Q4</text>
<polygon fill="none" stroke="#000000" points="8,-50 8,-70 85,-70 85,-50 8,-50"/>
<text text-anchor="start" x="17.3447" y="-55.8" font-family="Times,serif" font-size="14.00" fill="#000000">Objective:</text>
<polygon fill="none" stroke="#000000" points="85,-50 85,-70 370,-70 370,-50 85,-50"/>
<text text-anchor="start" x="87.6538" y="-55.8" font-family="Times,serif" font-size="14.00" fill="#000000">Simple usage for multiple different types of tasks.</text>
<polygon fill="none" stroke="#000000" points="8,-4 8,-50 85,-50 85,-4 8,-4"/>
<text text-anchor="start" x="10.5293" y="-22.8" font-family="Times,serif" font-size="14.00" fill="#000000">Key Results:</text>
<polygon fill="none" stroke="#000000" points="85,-4 85,-50 370,-50 370,-4 85,-4"/>
<polygon fill="none" stroke="#ff0000" points="88,-27 88,-47 367,-47 367,-27 88,-27"/>
<text text-anchor="start" x="91" y="-32.8" font-family="Times,serif" font-size="14.00" fill="#000000">Create Nested Tables to Collect New Data</text>
<polygon fill="none" stroke="#00ff00" points="88,-7 88,-27 367,-27 367,-7 88,-7"/>
<text text-anchor="start" x="91" y="-12.8" font-family="Times,serif" font-size="14.00" fill="#000000">Create 3 different examples to show people.</text>
</g>
<!-- WorkMachine&#45;&gt;WorkMachineProduct -->
<g id="edge1" class="edge">
<title>WorkMachine&#45;&gt;WorkMachineProduct</title>
<path fill="none" stroke="#000000" d="M302.0751,-155.996C290.7301,-146.3646 279.0564,-136.4541 267.7154,-126.8261"/>
<polygon fill="#000000" stroke="#000000" points="269.8138,-124.0164 259.9253,-120.2126 265.2835,-129.3527 269.8138,-124.0164"/>
</g>
<!-- WorkMachineMarketing -->
<g id="node3" class="node">
<title>WorkMachineMarketing</title>
<polygon fill="#ffa500" stroke="transparent" points="405,-96 405,-116 742,-116 742,-96 405,-96"/>
<polygon fill="none" stroke="#000000" points="405,-96 405,-116 742,-116 742,-96 405,-96"/>
<text text-anchor="start" x="520.8188" y="-102.8" font-family="Times,serif" font-weight="bold" font-size="14.00" fill="#000000">Project: Marketing</text>
<polygon fill="none" stroke="#000000" points="405,-90 405,-96 742,-96 742,-90 405,-90"/>
<polygon fill="none" stroke="#000000" points="405,-70 405,-90 742,-90 742,-70 405,-70"/>
<text text-anchor="start" x="564.9448" y="-75.8" font-family="Times,serif" font-size="14.00" fill="#000000">Q4</text>
<polygon fill="none" stroke="#000000" points="405,-50 405,-70 482,-70 482,-50 405,-50"/>
<text text-anchor="start" x="414.3447" y="-55.8" font-family="Times,serif" font-size="14.00" fill="#000000">Objective:</text>
<polygon fill="none" stroke="#000000" points="482,-50 482,-70 742,-70 742,-50 482,-50"/>
<text text-anchor="start" x="485" y="-55.8" font-family="Times,serif" font-size="14.00" fill="#000000">Make it easy for people to start.</text>
<polygon fill="none" stroke="#000000" points="405,-4 405,-50 482,-50 482,-4 405,-4"/>
<text text-anchor="start" x="407.5293" y="-22.8" font-family="Times,serif" font-size="14.00" fill="#000000">Key Results:</text>
<polygon fill="none" stroke="#000000" points="482,-4 482,-50 742,-50 742,-4 482,-4"/>
<polygon fill="none" stroke="#00ff00" points="485,-27 485,-47 739,-47 739,-27 485,-27"/>
<text text-anchor="start" x="488" y="-32.8" font-family="Times,serif" font-size="14.00" fill="#000000">Publish on Hacker News and get 20 Stars</text>
<polygon fill="none" stroke="#00ff00" points="485,-7 485,-27 739,-27 739,-7 485,-7"/>
<text text-anchor="start" x="487.6543" y="-12.8" font-family="Times,serif" font-size="14.00" fill="#000000">Launch DataCleanupGuy.com as a business.</text>
</g>
<!-- WorkMachine&#45;&gt;WorkMachineMarketing -->
<g id="edge2" class="edge">
<title>WorkMachine&#45;&gt;WorkMachineMarketing</title>
<path fill="none" stroke="#000000" d="M459.9249,-155.996C471.2699,-146.3646 482.9436,-136.4541 494.2846,-126.8261"/>
<polygon fill="#000000" stroke="#000000" points="496.7165,-129.3527 502.0747,-120.2126 492.1862,-124.0164 496.7165,-129.3527"/>
</g>
</g>
</svg>
